HIERARCHY
ROOT hip
{
	OFFSET 0.000000 0.000000 0.000000
	CHANNELS 6  Xposition Yposition Zposition Xrotation Zrotation Yrotation
	JOINT abdomen
	{
		OFFSET 0.000000 3.402643 0.000000
			CHANNELS 3 Xrotation Zrotation Yrotation
		JOINT chest
		{
			OFFSET 0.000000 8.438565 -0.680529
				CHANNELS 3 Xrotation Zrotation Yrotation
			JOINT neck
			{
				OFFSET 0.000000 10.207942 -0.272212
					CHANNELS 3 Xrotation Zrotation Yrotation
				JOINT head
				{
					OFFSET 0.000000 3.130431 0.000000
						CHANNELS 3 Xrotation Zrotation Yrotation
					End Site
					{
						OFFSET 0.000000 3.130435 0.000000
					}
				}
			}
			JOINT lCollar
			{
				OFFSET 3.470700 6.669187 -0.816635
					CHANNELS 3 Yrotation Zrotation Xrotation
				JOINT lShldr
				{
					OFFSET 3.198488 0.000000 0.000000
						CHANNELS 3 Zrotation Yrotation Xrotation
					JOINT lForeArm
					{
						OFFSET 10.139888 0.000000 0.000000
							CHANNELS 3 Yrotation Zrotation Xrotation
						JOINT lHand
						{
							OFFSET 8.370511 0.000000 0.000000
								CHANNELS 3 Zrotation Yrotation Xrotation
							End Site
							{
								OFFSET 4.083176 0.000000 0.000000
							}
						}
					}
				}
			}
			JOINT rCollar
			{
				OFFSET -3.470700 6.669187 -0.816635
					CHANNELS 3 Yrotation Zrotation Xrotation
				JOINT rShldr
				{
					OFFSET -3.198488 0.000000 0.000000
						CHANNELS 3 Zrotation Yrotation Xrotation
					JOINT rForeArm
					{
						OFFSET -10.139888 0.000000 0.000000
							CHANNELS 3 Yrotation Zrotation Xrotation
						JOINT rHand
						{
							OFFSET -8.370511 0.000000 0.000000
								CHANNELS 3 Zrotation Yrotation Xrotation
							End Site
							{
								OFFSET -4.083176 0.000000 0.000000
							}
						}
					}
				}
			}
		}
	}
	JOINT lThigh 
	{
		OFFSET 5.308129 -1.633274 1.361059
			CHANNELS 3 Xrotation Zrotation Yrotation
		JOINT lShin
		{
			OFFSET -2.041588 -20.007561 0.000000
				CHANNELS 3 Xrotation Zrotation Yrotation
			JOINT lFoot
			{
				OFFSET 0.000000 -19.190928 -1.224953
					CHANNELS 3 Xrotation Yrotation Zrotation
				End Site
				{
					OFFSET 0.000000 -2.449906 4.627600
				}
			}
		}
	}
	JOINT rThigh
	{
		OFFSET -5.308129 -1.633274 1.361059
			CHANNELS 3 Xrotation Zrotation Yrotation
		JOINT rShin
		{
			OFFSET 2.041588 -20.007561 0.000000
				CHANNELS 3 Xrotation Zrotation Yrotation
			JOINT rFoot
			{
				OFFSET 0.000000 -19.190928 -1.224953
					CHANNELS 3 Xrotation Yrotation Zrotation
				End Site
				{
					OFFSET 0.000000 -2.449906 4.627600
				}
			}
		}
	}
}
MOTION
Frames: 24
Frame Time: 0.032000
78.309540 48.995277 3742.438232 22.46 -2.54 1.46 1.69 -0.04 13.70 0.72 -0.02 5.87 -4.06 -2.39 -4.99 9.03 -1.70 -5.07 -1.25 1.09 -0.06 -63.00 46.44 18.30 -112.44 2.21 26.41 12.38 16.09 3.51 4.43 -6.89 -0.08 76.99 5.88 23.27 109.58 -2.61 31.35 -32.93 7.73 -5.17 -56.24 2.00 -0.87 26.59 -1.07 -2.40 23.42 -0.86 -12.07 -10.72 -2.87 -6.99 83.58 -2.29 3.38 -0.00 -0.00 0.00 
78.504944 47.281052 3750.035400 21.75 -2.59 1.44 1.16 -1.00 9.57 0.49 -0.43 4.10 -2.68 -1.51 -3.05 7.65 0.04 -3.01 0.66 -2.31 -0.10 -67.85 35.89 14.74 -111.22 2.43 28.62 13.10 15.71 3.57 4.80 -6.00 -0.02 78.40 -2.58 25.58 100.66 -2.64 29.59 -43.10 0.27 -0.24 -52.33 3.92 2.92 33.48 -1.04 -2.69 15.53 -5.91 -10.85 -17.18 -5.31 -8.63 101.72 -3.75 3.50 -0.00 -0.00 0.00 
78.919441 45.587555 3765.948975 22.20 1.31 1.41 2.43 -3.93 2.73 1.04 -1.67 1.17 -5.12 -0.37 -0.54 5.52 1.80 -0.50 2.19 -5.77 -0.10 -72.20 16.59 12.87 -109.13 2.59 31.46 14.07 15.18 3.66 5.11 -5.13 -0.06 79.95 -10.55 17.78 89.22 -2.91 32.86 -38.23 10.03 -7.92 -49.16 0.32 7.16 46.14 -0.63 -2.97 -0.92 -4.21 -12.09 -32.30 -11.91 -6.52 119.03 -4.62 2.57 -0.00 -0.00 0.00 
78.836540 45.574970 3763.577393 22.39 2.49 1.39 4.13 -3.70 -4.07 1.76 -1.58 -1.74 -6.15 0.10 1.31 4.99 3.84 1.25 0.25 -4.80 -0.16 -77.93 -2.64 10.02 -108.32 3.10 38.44 13.45 13.59 3.10 5.25 -5.21 -0.05 78.19 -21.83 11.06 85.21 -3.00 34.95 -34.39 10.02 -7.06 -40.55 -2.11 4.13 48.38 -0.65 -3.17 -6.35 -2.60 -12.47 -51.50 -13.22 -4.04 123.91 -4.84 2.33 -0.00 -0.00 0.00 
79.031944 46.876923 3771.100586 23.60 0.56 1.35 3.91 0.35 -9.76 1.67 0.15 -4.18 -5.67 -0.19 4.42 6.00 1.96 4.39 1.07 -3.40 -0.11 -83.61 -12.92 7.88 -111.05 3.25 41.13 15.00 14.00 3.64 4.41 -6.08 -0.06 68.89 -31.04 16.44 86.47 -2.87 33.66 -33.62 10.23 -6.85 -30.89 -0.08 1.01 44.72 -0.30 -3.21 -1.26 -4.22 -12.29 -65.68 -10.99 -4.88 116.77 -4.51 3.03 -0.00 -0.00 0.00 
79.487885 48.799873 3789.181152 24.23 -1.62 1.32 3.14 3.35 -13.51 1.34 1.43 -5.78 -5.29 1.47 7.71 6.72 -1.65 7.94 3.10 -1.41 -0.10 -86.41 -17.23 7.36 -115.44 3.24 39.92 11.18 13.42 2.60 4.54 -7.94 -0.08 59.87 -40.07 24.35 88.60 -2.69 30.79 -34.20 10.02 -6.96 -19.89 4.16 1.14 37.50 -0.76 -2.40 12.25 -9.18 -10.25 -72.16 -6.62 -4.16 100.33 -3.68 3.54 -0.00 -0.00 0.00 
79.209587 48.724373 3775.497070 26.58 -2.57 1.27 3.98 6.20 -15.88 1.71 2.66 -6.80 -8.56 3.84 7.21 7.97 -4.03 7.85 2.70 -0.92 -0.14 -87.05 -22.71 11.29 -120.08 3.21 40.00 15.70 17.23 4.70 5.57 -11.71 -0.01 54.61 -48.14 27.65 88.83 -1.44 15.14 -29.45 14.67 -8.26 -17.17 5.89 0.07 35.29 -0.99 -2.53 11.77 -4.51 -11.04 -80.91 -3.69 -0.09 98.88 -3.38 3.49 -0.00 -0.00 0.00 
79.695129 50.280941 3795.043213 27.31 -4.08 1.24 3.08 7.91 -15.31 1.32 3.39 -6.56 -7.36 4.24 8.20 7.92 -7.53 9.02 3.33 -0.45 -0.15 -85.47 -19.48 10.57 -122.20 3.23 40.95 18.91 19.22 6.35 7.43 -13.26 -0.03 53.05 -58.20 27.90 91.36 -2.15 23.54 -35.25 16.94 -11.89 -10.07 8.34 4.45 35.40 -0.83 -2.75 23.43 -3.85 -10.66 -77.75 -1.46 1.11 72.47 -1.76 3.80 -0.00 -0.00 0.00 
80.074104 50.767975 3811.250000 27.19 -2.70 1.21 3.40 8.75 -15.36 1.46 3.75 -6.58 -7.88 4.19 8.70 8.04 -9.17 9.36 3.68 -1.06 -0.12 -84.45 -15.83 8.70 -120.60 3.35 42.84 14.40 12.60 3.18 7.84 -13.14 -0.10 59.92 -62.44 17.82 92.20 -2.79 31.28 -38.39 20.46 -15.56 -9.64 6.78 3.71 51.02 -0.08 -3.12 28.15 -5.31 -9.51 -70.75 -3.01 1.31 47.61 -0.32 2.97 -0.00 -0.00 0.00 
80.020805 50.041870 3809.977051 25.84 -1.48 1.19 4.35 9.37 -13.55 1.86 4.01 -5.80 -7.58 3.43 7.89 7.60 -11.68 8.66 3.22 -1.49 -0.08 -84.62 -10.99 9.94 -115.79 3.63 46.27 13.17 13.88 3.23 6.35 -11.03 -0.14 68.07 -55.67 6.79 93.06 -2.71 31.12 -34.67 19.47 -13.14 -12.09 4.14 3.20 73.99 0.91 -3.74 31.08 -5.42 -9.34 -63.09 -4.47 -0.40 34.36 0.71 2.30 -0.00 -0.00 0.00 
80.174767 48.577820 3817.295654 24.27 -2.34 1.17 3.54 10.61 -9.17 1.51 4.55 -3.92 -4.50 1.65 6.38 7.34 -13.31 7.01 1.98 -1.68 -0.11 -85.72 -3.09 12.54 -108.13 3.55 43.59 12.77 16.90 3.69 4.91 -6.49 -0.09 66.74 -44.42 5.04 94.06 -2.51 29.25 -29.70 12.65 -7.33 -16.08 3.98 5.99 97.06 2.28 -3.87 31.83 -2.17 -11.04 -56.27 -3.75 -5.65 35.69 0.72 2.21 -0.00 -0.00 0.00 
80.316872 46.744431 3824.489990 24.15 -4.66 1.13 2.68 12.71 -3.54 1.15 5.45 -1.52 -3.94 -0.47 5.21 6.58 -14.20 5.65 2.22 -3.16 -0.05 -85.95 3.83 14.31 -99.53 3.19 40.01 13.13 17.01 3.91 3.79 -2.55 -0.06 64.98 -28.92 5.09 94.67 -2.40 27.79 -27.23 11.49 -6.08 -25.66 6.66 8.37 116.40 3.52 -3.68 35.21 -5.30 -8.69 -51.18 -1.52 -10.09 42.94 0.46 2.41 -0.00 -0.00 0.00 
80.612938 45.451363 3839.332031 23.98 -8.20 1.09 4.03 14.24 2.49 1.72 6.11 1.06 -7.61 -0.50 4.63 6.97 -16.30 5.28 1.45 -2.91 -0.11 -86.27 11.80 11.70 -94.00 3.14 38.36 14.86 19.44 5.03 4.59 -0.65 -0.12 66.48 -7.82 6.99 96.67 -2.42 28.23 -27.54 12.53 -6.56 -43.11 10.60 6.06 129.77 4.27 -2.96 39.37 -10.26 -4.57 -46.09 3.95 -8.27 50.02 0.08 3.24 -0.00 -0.00 0.00 
80.518196 45.836250 3837.215088 24.47 -6.63 1.03 4.07 11.30 6.87 1.74 4.84 2.94 -7.11 -0.12 3.15 6.34 -15.27 3.90 0.66 -0.67 -0.17 -83.04 22.08 12.31 -93.28 2.79 34.49 15.29 22.39 5.97 6.38 -2.59 -0.03 73.71 9.01 9.26 100.63 -2.68 31.38 -30.60 12.93 -7.59 -62.92 7.63 3.20 128.84 4.52 -3.16 38.31 -6.61 -7.44 -36.57 3.44 -3.56 49.24 0.06 3.18 -0.00 -0.00 0.00 
80.642548 47.104153 3844.776611 24.58 -3.21 0.96 3.27 8.41 9.44 1.39 3.60 4.04 -6.07 -1.16 0.17 8.40 -12.68 0.47 0.48 0.23 -0.08 -75.25 30.12 19.28 -96.63 2.74 32.25 14.60 21.27 5.41 5.69 -5.05 -0.03 77.73 17.31 13.13 106.72 -2.67 31.48 -31.21 9.69 -5.93 -72.77 1.44 1.41 117.67 4.09 -3.19 32.14 -1.55 -11.40 -26.35 -0.79 -2.65 45.45 -0.02 2.89 -0.00 -0.00 0.00 
80.713600 48.802834 3851.461670 25.25 0.23 0.88 1.77 5.24 11.99 0.76 2.24 5.13 -4.95 -2.78 -3.21 9.72 -9.70 -3.23 -0.73 1.35 -0.11 -65.78 38.19 26.15 -101.95 2.59 30.81 12.67 19.60 4.27 4.28 -6.86 -0.01 78.00 19.71 16.33 113.40 -2.67 32.17 -30.95 9.18 -5.61 -75.89 -3.93 -0.22 98.39 2.94 -3.91 27.41 -1.05 -11.81 -17.50 -5.42 -4.30 41.30 0.11 2.37 -0.00 -0.00 0.00 
80.796501 49.933804 3857.759033 25.65 1.14 0.80 0.81 3.33 14.27 0.34 1.42 6.11 -4.75 -3.80 -5.24 9.87 -7.76 -5.40 -1.68 1.96 -0.12 -58.03 44.39 30.27 -106.66 2.23 26.57 12.03 18.79 3.92 3.23 -7.73 -0.09 76.65 19.34 18.02 117.63 -2.63 32.28 -30.55 10.54 -6.28 -74.41 -4.80 -1.96 78.76 1.48 -4.33 24.97 -2.29 -11.29 -12.31 -6.64 -5.33 41.40 0.16 2.49 -0.00 -0.00 0.00 
80.814262 50.585152 3863.363525 25.31 -0.23 0.71 0.60 2.17 16.38 0.25 0.92 7.02 -5.05 -4.40 -6.13 10.11 -5.45 -6.53 -2.22 2.25 -0.09 -52.15 50.52 31.81 -110.91 2.03 24.88 12.62 17.53 3.82 3.66 -8.08 -0.14 75.02 17.01 19.60 119.60 -2.55 31.78 -30.38 11.78 -6.99 -69.71 -2.38 -3.72 55.14 -0.17 -3.81 22.35 -2.38 -11.21 -9.37 -5.19 -5.08 48.98 0.03 2.98 -0.00 -0.00 0.00 
80.843872 50.451183 3869.468506 24.60 -1.63 0.61 1.29 1.05 16.89 0.55 0.44 7.24 -5.96 -3.60 -6.23 10.17 -4.24 -6.50 -2.28 2.57 -0.09 -53.47 52.14 27.75 -112.75 2.22 25.16 11.42 16.78 3.35 3.97 -7.53 -0.03 74.85 14.27 21.57 118.09 -2.71 31.55 -31.90 9.56 -6.14 -63.82 0.08 -4.11 36.46 -0.97 -2.85 23.08 -1.51 -11.63 -8.96 -3.75 -4.99 60.73 -0.58 3.06 -0.00 -0.00 0.00 
80.814262 49.639961 3875.605713 23.09 -2.08 0.50 1.73 0.31 15.27 0.74 0.13 6.55 -4.84 -2.81 -5.67 9.52 -2.58 -5.83 -1.96 2.31 -0.10 -59.80 49.73 21.18 -112.81 2.29 25.48 11.66 16.60 3.40 4.32 -7.25 -0.13 76.26 8.94 23.12 113.21 -2.69 31.20 -32.85 8.01 -5.31 -58.25 1.49 -2.13 26.31 -1.07 -2.31 23.18 -0.45 -12.23 -9.21 -2.51 -6.00 75.81 -1.69 3.40 -0.00 -0.00 0.00 
80.808342 48.499367 3880.772217 22.09 -2.15 0.39 1.64 -0.31 12.52 0.70 -0.13 5.37 -3.49 -2.08 -4.46 8.68 -1.05 -4.49 -0.68 0.08 -0.02 -64.83 43.66 16.69 -112.13 2.14 27.15 12.96 15.70 3.55 4.52 -6.60 -0.02 77.51 3.62 23.32 106.80 -2.75 31.51 -32.98 7.54 -5.09 -54.84 2.34 0.07 27.30 -1.07 -2.51 23.64 -1.27 -11.90 -11.97 -3.25 -7.76 89.29 -2.73 3.30 -0.00 -0.00 0.00 
80.790573 47.295116 3885.284180 21.80 -2.12 0.26 1.16 -1.00 9.64 0.50 -0.43 4.13 -2.69 -1.51 -3.08 7.66 0.03 -3.04 0.64 -2.28 -0.10 -67.97 36.04 14.59 -111.29 2.12 28.88 13.14 15.75 3.54 4.81 -6.01 -0.02 78.39 -2.51 25.55 100.72 -2.87 29.54 -43.04 0.30 -0.31 -52.36 3.91 2.90 33.41 -1.04 -2.69 15.63 -5.86 -10.86 -17.11 -5.28 -8.65 101.57 -3.76 3.49 -0.00 -0.00 0.00 
80.719521 46.121212 3890.708252 22.05 0.20 0.14 1.72 -2.84 5.41 0.74 -1.20 2.31 -4.00 -0.81 -1.42 6.25 1.10 -1.38 1.93 -4.76 -0.11 -70.92 24.21 13.15 -109.82 3.32 29.90 12.67 14.33 4.40 5.05 -5.42 -0.05 79.38 -7.71 21.48 93.17 -3.38 30.78 -41.56 5.21 -4.56 -50.50 2.12 6.08 41.87 -0.76 -2.90 4.73 -5.64 -11.58 -26.16 -9.53 -7.79 113.37 -4.46 2.95 -0.00 -0.00 0.00 
81.104408 45.446922 3907.942139 22.18 2.33 2.53 4.24 -4.26 -3.18 1.81 -1.82 -1.36 -6.36 0.23 0.95 4.96 3.78 0.92 0.28 -5.06 -0.15 -76.90 -0.66 10.45 -108.24 2.97 36.61 13.32 13.92 3.14 5.32 -5.17 -0.05 79.25 -20.15 10.83 85.14 -3.01 35.13 -34.39 10.34 -7.23 -41.74 -2.26 4.62 48.61 -0.73 -3.18 -6.48 -2.41 -12.46 -48.79 -13.55 -3.96 124.28 -4.88 2.29 -0.00 -0.00 0.00 
